<svg width="235" height="219" viewBox="0 0 235 219" fill="none" xmlns="http://www.w3.org/2000/svg">
<path fill-rule="evenodd" clip-rule="evenodd" d="M220 0C228.284 0 235 6.71573 235 15V173C235 181.284 228.284 188 220 188H35L8.69922 216.931C5.62501 220.312 0.000342664 218.137 0 213.567V15C6.76514e-07 6.71573 6.71573 0 15 0H220ZM58 34C44.5 34 34 44.875 34 58V82C34 95.5 44.5 106 58 106H82V109C82 120.625 72.25 130 61 130H58C51.25 130 46 135.625 46 142C46 148.75 51.25 154 58 154H61C85.75 154 106 134.125 106 109V58C106 44.875 95.125 34 82 34H58ZM154 34C140.5 34 130 44.875 130 58V82C130 95.5 140.5 106 154 106H178V109C178 120.625 168.25 130 157 130H154C147.25 130 142 135.625 142 142C142 148.75 147.25 154 154 154H157C181.75 154 202 134.125 202 109V58C202 44.875 191.125 34 178 34H154Z" fill="black"/>
</svg>
